<svg width="351" height="80" xmlns="http://www.w3.org/2000/svg">

 <g>
  <title>background</title>
  <rect fill="none" id="canvas_background" height="402" width="582" y="-1" x="-1"/>
 </g>
 <g>
  <title>Layer 1</title>
  <path id="svg_1" d="m62.1,40.8c0,3.2 -2.6,5.8 -5.8,5.8l-3,0l0,4l3,0c5.4,0 9.8,-4.4 9.8,-9.8l0,-8.2l-4,0l0,8.2z" fill="#ffb900"/>
  <path id="svg_2" d="m15.3,47.5l-6,5.3l3.3,-10c0.1,-0.4 0.2,-0.8 0.2,-1.2l0,-24.2c0,-3.2 2.6,-5.8 5.8,-5.8l37.9,0c3.2,0 5.8,2.6 5.8,5.8l0,4.3l4,0l0,-4.3c0,-5.4 -4.4,-9.8 -9.8,-9.8l-38,0c-5.4,0 -9.8,4.4 -9.8,9.8l0,24.2l-3.4,10.8c-0.5,1.6 0.1,3.4 1.5,4.3c0.6,0.4 1.4,0.6 2.1,0.6c0.9,0 1.8,-0.3 2.5,-1l6.5,-5.8l24.2,0l0,-4l-24.3,0c-0.9,0.1 -1.8,0.4 -2.5,1z" fill="#ffb900"/>
  <path id="svg_3" d="m103.9,59.2l0,-24.3c0,-5.4 -4.4,-9.8 -9.8,-9.8l-37.8,0c-5.4,0 -9.8,4.4 -9.8,9.8l0,23.4c0,5.4 4.4,9.8 9.8,9.8l38.5,0l6.5,5.8c0.7,0.6 1.6,1 2.5,1c0.7,0 1.4,-0.2 2.1,-0.6c1.5,-0.9 2.1,-2.7 1.5,-4.3l-3.5,-10.8zm-6.5,5.9c-0.7,-0.6 -1.6,-1 -2.5,-1l-38.6,0c-3.2,0 -5.8,-2.6 -5.8,-5.8l0,-23.4c0,-3.2 2.6,-5.8 5.8,-5.8l37.9,0c3.2,0 5.8,2.6 5.8,5.8l0,24.3c0,0.4 0.1,0.8 0.2,1.2l3.3,10l-6.1,-5.3z" fill="#409AE1"/>
  <text font-weight="bold" transform="matrix(50.75804310490657,0,0,42.0818015643472,-15560.82730051332,-2512.0738885492524) " xml:space="preserve" text-anchor="start" font-family="Arvo, sans-serif" font-size="1" id="svg_4" y="61.1166" x="309" stroke-width="0" fill="#ffffff">Parrot</text>
 </g>
</svg>