<svg xmlns="http://www.w3.org/2000/svg" xmlns:xlink="http://www.w3.org/1999/xlink" version="1.1" id="Layer_1" x="0px" y="0px" width="612px" height="679.896px" viewBox="0 112.104 612 679.896" enable-background="new 0 112.104 612 679.896" xml:space="preserve">
<path id="microphone-3-icon" fill="#d83b01" d="M237.576,419.47V270.745c0-45.836,37.059-82.896,82.896-82.896  c45.836,0,82.896,37.06,82.896,82.896V419.47c0,45.838-37.061,82.896-82.896,82.896C274.635,502.366,237.576,465.184,237.576,419.47  z M439.94,376.803v42.667c0,65.83-53.639,119.469-119.468,119.469c-65.83,0-119.469-53.639-119.469-119.469v-42.667h-48.763v42.667  c0,83.385,61.075,152.872,140.803,166.037v55.712h-70.097v48.762h195.05v-48.762h-70.095v-55.712  c79.726-13.165,140.801-82.652,140.801-166.037v-42.667H439.94z"/>
</svg>